solid obstruction_0
  facet normal 0.000000 0.000000 -1.000000
    outer loop
      vertex 4.250000 3.600000 0.000000
      vertex 5.750000 4.400000 0.000000
      vertex 5.750000 3.600000 0.000000
    endloop
  endfacet
  facet normal 0.000000 0.000000 -1.000000
    outer loop
      vertex 4.250000 3.600000 0.000000
      vertex 4.250000 4.400000 0.000000
      vertex 5.750000 4.400000 0.000000
    endloop
  endfacet
  facet normal 0.000000 0.000000 1.000000
    outer loop
      vertex 4.250000 3.600000 0.750000
      vertex 5.750000 3.600000 0.750000
      vertex 5.750000 4.400000 0.750000
    endloop
  endfacet
  facet normal 0.000000 0.000000 1.000000
    outer loop
      vertex 4.250000 3.600000 0.750000
      vertex 5.750000 4.400000 0.750000
      vertex 4.250000 4.400000 0.750000
    endloop
  endfacet
  facet normal 0.000000 -1.000000 0.000000
    outer loop
      vertex 4.250000 3.600000 0.000000
      vertex 5.750000 3.600000 0.000000
      vertex 5.750000 3.600000 0.750000
    endloop
  endfacet
  facet normal 0.000000 -1.000000 0.000000
    outer loop
      vertex 4.250000 3.600000 0.000000
      vertex 5.750000 3.600000 0.750000
      vertex 4.250000 3.600000 0.750000
    endloop
  endfacet
  facet normal 0.000000 1.000000 0.000000
    outer loop
      vertex 5.750000 4.400000 0.000000
      vertex 4.250000 4.400000 0.000000
      vertex 4.250000 4.400000 0.750000
    endloop
  endfacet
  facet normal 0.000000 1.000000 0.000000
    outer loop
      vertex 5.750000 4.400000 0.000000
      vertex 4.250000 4.400000 0.750000
      vertex 5.750000 4.400000 0.750000
    endloop
  endfacet
  facet normal -1.000000 0.000000 0.000000
    outer loop
      vertex 4.250000 3.600000 0.000000
      vertex 4.250000 3.600000 0.750000
      vertex 4.250000 4.400000 0.750000
    endloop
  endfacet
  facet normal -1.000000 0.000000 0.000000
    outer loop
      vertex 4.250000 3.600000 0.000000
      vertex 4.250000 4.400000 0.750000
      vertex 4.250000 4.400000 0.000000
    endloop
  endfacet
  facet normal 1.000000 0.000000 0.000000
    outer loop
      vertex 5.750000 3.600000 0.000000
      vertex 5.750000 4.400000 0.000000
      vertex 5.750000 4.400000 0.750000
    endloop
  endfacet
  facet normal 1.000000 0.000000 0.000000
    outer loop
      vertex 5.750000 3.600000 0.000000
      vertex 5.750000 4.400000 0.750000
      vertex 5.750000 3.600000 0.750000
    endloop
  endfacet
endsolid obstruction_0
